<svg width="99" height="20" viewBox="0 0 99 20" fill="none" xmlns="http://www.w3.org/2000/svg">
<path d="M89.0662 19.9804L82.4645 13.3414C80.6242 11.4906 80.6242 8.48986 82.4645 6.63908V6.63908C84.3049 4.7883 87.2887 4.7883 89.129 6.63908L95.7307 13.2781L89.0662 19.9804Z" fill="#F47474"/>
<path d="M82.4016 13.2781L89.0032 6.63909C90.8436 4.7883 93.8274 4.7883 95.6677 6.63909V6.63909C97.5081 8.48987 97.5081 11.4906 95.6677 13.3414L89.0661 19.9804L82.4016 13.2781Z" fill="#F47474"/>
<path d="M69.283 19.9804L62.6813 13.3414C60.841 11.4906 60.841 8.48986 62.6813 6.63908V6.63908C64.5217 4.7883 67.5055 4.7883 69.3458 6.63908L75.9475 13.2781L69.283 19.9804Z" fill="#F47474"/>
<path d="M62.6184 13.2781L69.22 6.63909C71.0604 4.7883 74.0442 4.7883 75.8845 6.63909V6.63909C77.7249 8.48987 77.7249 11.4906 75.8845 13.3414L69.2829 19.9804L62.6184 13.2781Z" fill="#F47474"/>
<path d="M49.5 19.9804L42.8984 13.3414C41.058 11.4906 41.058 8.48986 42.8984 6.63908V6.63908C44.7387 4.7883 47.7225 4.7883 49.5629 6.63908L56.1645 13.2781L49.5 19.9804Z" fill="#F47474"/>
<path d="M42.8354 13.2781L49.4371 6.63909C51.2774 4.7883 54.2612 4.7883 56.1016 6.63909V6.63909C57.9419 8.48987 57.9419 11.4906 56.1016 13.3414L49.4999 19.9804L42.8354 13.2781Z" fill="#F47474"/>
<path d="M29.7168 19.9804L23.1152 13.3414C21.2748 11.4906 21.2748 8.48986 23.1152 6.63908V6.63908C24.9555 4.7883 27.9393 4.7883 29.7797 6.63908L36.3813 13.2781L29.7168 19.9804Z" fill="#F47474"/>
<path d="M23.0522 13.2781L29.6539 6.63909C31.4942 4.7883 34.478 4.7883 36.3184 6.63909V6.63909C38.1587 8.48987 38.1587 11.4906 36.3184 13.3414L29.7167 19.9804L23.0522 13.2781Z" fill="#F47474"/>
<path d="M9.93384 19.9804L3.33221 13.3414C1.49186 11.4906 1.49186 8.48986 3.33221 6.63908V6.63908C5.17256 4.7883 8.15636 4.7883 9.99671 6.63908L16.5983 13.2781L9.93384 19.9804Z" fill="#F47474"/>
<path d="M3.26929 13.2781L9.87091 6.63909C11.7113 4.7883 14.6951 4.7883 16.5354 6.63909V6.63909C18.3758 8.48987 18.3758 11.4906 16.5354 13.3414L9.93378 19.9804L3.26929 13.2781Z" fill="#F47474"/>
</svg>
